# xmcd
#
# Track frame offsets: 
#        300
#        25103
#        37132
#        52927
#        66396
#        94926
#        116837
#        130746
#        150148
#        163862
#        178670
#
# Disc length: 2667 seconds
#
# Revision: 0
# Processed by: cddbd v1.5.2PL0 Copyright (c) Steve Scherf et al.
# Submitted via: ExactAudioCopy v0.95b4
#
DISCID=910a670b
DTITLE=Willie Nelson - Songbird
DYEAR=2006
DGENRE=Country
TTITLE0=Rainy Day Blues
TTITLE1=Songbird
TTITLE2=Blue Hotel
TTITLE3=Back to Earth
TTITLE4=Stella Blue
TTITLE5=Hallelujah
TTITLE6=$1000 Wedding
TTITLE7=We Don't Run
TTITLE8=Yours Love
TTITLE9=Sad Songs and Waltzes
TTITLE10=Amazing Grace
EXTD=
EXTT0=
EXTT1=
EXTT2=
EXTT3=
EXTT4=
EXTT5=
EXTT6=
EXTT7=
EXTT8=
EXTT9=
EXTT10=
PLAYORDER=
